<mxfile host="app.diagrams.net" agent="Mozilla/5.0 (Windows NT 10.0; Win64; x64) AppleWebKit/537.36 (KHTML, like Gecko) Chrome/134.0.0.0 Safari/537.36" version="26.0.3">
  <diagram id="C5RBs43oDa-KdzZeNtuy" name="Page-1">
    <mxGraphModel dx="888" dy="481" grid="0" gridSize="10" guides="1" tooltips="1" connect="1" arrows="1" fold="1" page="1" pageScale="1" pageWidth="827" pageHeight="1169" math="0" shadow="1">
      <root>
        <mxCell id="WIyWlLk6GJQsqaUBKTNV-0" />
        <mxCell id="WIyWlLk6GJQsqaUBKTNV-1" parent="WIyWlLk6GJQsqaUBKTNV-0" />
        <mxCell id="bRGyaHFy2XWO1hQqYT5l-40" style="edgeStyle=orthogonalEdgeStyle;rounded=0;orthogonalLoop=1;jettySize=auto;html=1;exitX=0.5;exitY=0;exitDx=0;exitDy=0;entryX=0.5;entryY=1;entryDx=0;entryDy=0;" edge="1" parent="WIyWlLk6GJQsqaUBKTNV-1" source="WIyWlLk6GJQsqaUBKTNV-3" target="bRGyaHFy2XWO1hQqYT5l-5">
          <mxGeometry relative="1" as="geometry" />
        </mxCell>
        <mxCell id="bRGyaHFy2XWO1hQqYT5l-46" style="edgeStyle=orthogonalEdgeStyle;rounded=0;orthogonalLoop=1;jettySize=auto;html=1;exitX=0.75;exitY=0;exitDx=0;exitDy=0;entryX=0.5;entryY=1;entryDx=0;entryDy=0;" edge="1" parent="WIyWlLk6GJQsqaUBKTNV-1" source="WIyWlLk6GJQsqaUBKTNV-3" target="bRGyaHFy2XWO1hQqYT5l-4">
          <mxGeometry relative="1" as="geometry" />
        </mxCell>
        <mxCell id="WIyWlLk6GJQsqaUBKTNV-3" value="Головна сторінка" style="rounded=1;whiteSpace=wrap;html=1;fontSize=12;glass=0;strokeWidth=1;shadow=0;" parent="WIyWlLk6GJQsqaUBKTNV-1" vertex="1">
          <mxGeometry x="350" y="160" width="120" height="40" as="geometry" />
        </mxCell>
        <mxCell id="bRGyaHFy2XWO1hQqYT5l-52" style="edgeStyle=orthogonalEdgeStyle;rounded=0;orthogonalLoop=1;jettySize=auto;html=1;exitX=1;exitY=0.5;exitDx=0;exitDy=0;entryX=0.75;entryY=0;entryDx=0;entryDy=0;" edge="1" parent="WIyWlLk6GJQsqaUBKTNV-1" source="bRGyaHFy2XWO1hQqYT5l-0" target="bRGyaHFy2XWO1hQqYT5l-2">
          <mxGeometry relative="1" as="geometry" />
        </mxCell>
        <mxCell id="bRGyaHFy2XWO1hQqYT5l-55" style="edgeStyle=orthogonalEdgeStyle;rounded=0;orthogonalLoop=1;jettySize=auto;html=1;exitX=0.75;exitY=1;exitDx=0;exitDy=0;entryX=0.5;entryY=1;entryDx=0;entryDy=0;" edge="1" parent="WIyWlLk6GJQsqaUBKTNV-1" source="bRGyaHFy2XWO1hQqYT5l-0" target="bRGyaHFy2XWO1hQqYT5l-1">
          <mxGeometry relative="1" as="geometry">
            <mxPoint x="600.4117647058824" y="340" as="targetPoint" />
            <Array as="points">
              <mxPoint x="600" y="340" />
              <mxPoint x="330" y="340" />
            </Array>
          </mxGeometry>
        </mxCell>
        <mxCell id="bRGyaHFy2XWO1hQqYT5l-0" value="Профіль користувача" style="rounded=1;whiteSpace=wrap;html=1;fontSize=12;glass=0;strokeWidth=1;shadow=0;" vertex="1" parent="WIyWlLk6GJQsqaUBKTNV-1">
          <mxGeometry x="510" y="160" width="120" height="40" as="geometry" />
        </mxCell>
        <mxCell id="bRGyaHFy2XWO1hQqYT5l-56" style="edgeStyle=orthogonalEdgeStyle;rounded=0;orthogonalLoop=1;jettySize=auto;html=1;exitX=0.5;exitY=1;exitDx=0;exitDy=0;entryX=0.75;entryY=1;entryDx=0;entryDy=0;" edge="1" parent="WIyWlLk6GJQsqaUBKTNV-1" source="bRGyaHFy2XWO1hQqYT5l-1" target="bRGyaHFy2XWO1hQqYT5l-0">
          <mxGeometry relative="1" as="geometry">
            <Array as="points">
              <mxPoint x="330" y="340" />
              <mxPoint x="600" y="340" />
            </Array>
          </mxGeometry>
        </mxCell>
        <mxCell id="bRGyaHFy2XWO1hQqYT5l-64" style="edgeStyle=orthogonalEdgeStyle;rounded=0;orthogonalLoop=1;jettySize=auto;html=1;exitX=0.75;exitY=0;exitDx=0;exitDy=0;entryX=0.25;entryY=0;entryDx=0;entryDy=0;" edge="1" parent="WIyWlLk6GJQsqaUBKTNV-1" source="bRGyaHFy2XWO1hQqYT5l-1" target="bRGyaHFy2XWO1hQqYT5l-2">
          <mxGeometry relative="1" as="geometry" />
        </mxCell>
        <mxCell id="bRGyaHFy2XWO1hQqYT5l-1" value="Про нас" style="rounded=1;whiteSpace=wrap;html=1;fontSize=12;glass=0;strokeWidth=1;shadow=0;" vertex="1" parent="WIyWlLk6GJQsqaUBKTNV-1">
          <mxGeometry x="270" y="260" width="120" height="40" as="geometry" />
        </mxCell>
        <mxCell id="bRGyaHFy2XWO1hQqYT5l-53" style="edgeStyle=orthogonalEdgeStyle;rounded=0;orthogonalLoop=1;jettySize=auto;html=1;exitX=0.75;exitY=0;exitDx=0;exitDy=0;entryX=1;entryY=0.5;entryDx=0;entryDy=0;" edge="1" parent="WIyWlLk6GJQsqaUBKTNV-1" source="bRGyaHFy2XWO1hQqYT5l-2" target="bRGyaHFy2XWO1hQqYT5l-0">
          <mxGeometry relative="1" as="geometry" />
        </mxCell>
        <mxCell id="bRGyaHFy2XWO1hQqYT5l-58" style="edgeStyle=orthogonalEdgeStyle;rounded=0;orthogonalLoop=1;jettySize=auto;html=1;exitX=0;exitY=0.5;exitDx=0;exitDy=0;entryX=1;entryY=0.5;entryDx=0;entryDy=0;" edge="1" parent="WIyWlLk6GJQsqaUBKTNV-1" source="bRGyaHFy2XWO1hQqYT5l-2" target="bRGyaHFy2XWO1hQqYT5l-6">
          <mxGeometry relative="1" as="geometry" />
        </mxCell>
        <mxCell id="bRGyaHFy2XWO1hQqYT5l-63" style="edgeStyle=orthogonalEdgeStyle;rounded=0;orthogonalLoop=1;jettySize=auto;html=1;exitX=0.25;exitY=0;exitDx=0;exitDy=0;entryX=0.75;entryY=0;entryDx=0;entryDy=0;" edge="1" parent="WIyWlLk6GJQsqaUBKTNV-1" source="bRGyaHFy2XWO1hQqYT5l-2" target="bRGyaHFy2XWO1hQqYT5l-1">
          <mxGeometry relative="1" as="geometry" />
        </mxCell>
        <mxCell id="bRGyaHFy2XWO1hQqYT5l-2" value="Вхід" style="rounded=1;whiteSpace=wrap;html=1;fontSize=12;glass=0;strokeWidth=1;shadow=0;" vertex="1" parent="WIyWlLk6GJQsqaUBKTNV-1">
          <mxGeometry x="620" y="260" width="120" height="40" as="geometry" />
        </mxCell>
        <mxCell id="bRGyaHFy2XWO1hQqYT5l-45" style="edgeStyle=orthogonalEdgeStyle;rounded=0;orthogonalLoop=1;jettySize=auto;html=1;exitX=0.5;exitY=1;exitDx=0;exitDy=0;entryX=0.75;entryY=0;entryDx=0;entryDy=0;" edge="1" parent="WIyWlLk6GJQsqaUBKTNV-1" source="bRGyaHFy2XWO1hQqYT5l-4" target="WIyWlLk6GJQsqaUBKTNV-3">
          <mxGeometry relative="1" as="geometry" />
        </mxCell>
        <mxCell id="bRGyaHFy2XWO1hQqYT5l-48" style="edgeStyle=orthogonalEdgeStyle;rounded=0;orthogonalLoop=1;jettySize=auto;html=1;exitX=0.75;exitY=1;exitDx=0;exitDy=0;entryX=0.75;entryY=0;entryDx=0;entryDy=0;" edge="1" parent="WIyWlLk6GJQsqaUBKTNV-1" source="bRGyaHFy2XWO1hQqYT5l-4" target="bRGyaHFy2XWO1hQqYT5l-0">
          <mxGeometry relative="1" as="geometry" />
        </mxCell>
        <mxCell id="bRGyaHFy2XWO1hQqYT5l-68" style="edgeStyle=orthogonalEdgeStyle;rounded=0;orthogonalLoop=1;jettySize=auto;html=1;exitX=0.5;exitY=0;exitDx=0;exitDy=0;entryX=0;entryY=0.5;entryDx=0;entryDy=0;" edge="1" parent="WIyWlLk6GJQsqaUBKTNV-1" target="bRGyaHFy2XWO1hQqYT5l-1">
          <mxGeometry relative="1" as="geometry">
            <mxPoint x="250.05999999999977" y="280" as="targetPoint" />
            <mxPoint x="550.0599999999997" y="60" as="sourcePoint" />
            <Array as="points">
              <mxPoint x="550" y="40" />
              <mxPoint x="250" y="40" />
              <mxPoint x="250" y="280" />
            </Array>
          </mxGeometry>
        </mxCell>
        <mxCell id="bRGyaHFy2XWO1hQqYT5l-4" value="Обговорення 2" style="rounded=1;whiteSpace=wrap;html=1;fontSize=12;glass=0;strokeWidth=1;shadow=0;" vertex="1" parent="WIyWlLk6GJQsqaUBKTNV-1">
          <mxGeometry x="510" y="60" width="120" height="40" as="geometry" />
        </mxCell>
        <mxCell id="bRGyaHFy2XWO1hQqYT5l-41" style="edgeStyle=orthogonalEdgeStyle;rounded=0;orthogonalLoop=1;jettySize=auto;html=1;exitX=0;exitY=0.5;exitDx=0;exitDy=0;entryX=0;entryY=0.5;entryDx=0;entryDy=0;" edge="1" parent="WIyWlLk6GJQsqaUBKTNV-1" source="bRGyaHFy2XWO1hQqYT5l-5" target="bRGyaHFy2XWO1hQqYT5l-1">
          <mxGeometry relative="1" as="geometry">
            <Array as="points">
              <mxPoint x="250" y="80" />
              <mxPoint x="250" y="280" />
            </Array>
          </mxGeometry>
        </mxCell>
        <mxCell id="bRGyaHFy2XWO1hQqYT5l-42" style="edgeStyle=orthogonalEdgeStyle;rounded=0;orthogonalLoop=1;jettySize=auto;html=1;exitX=0;exitY=0.5;exitDx=0;exitDy=0;entryX=0.5;entryY=1;entryDx=0;entryDy=0;" edge="1" parent="WIyWlLk6GJQsqaUBKTNV-1" source="bRGyaHFy2XWO1hQqYT5l-5" target="bRGyaHFy2XWO1hQqYT5l-6">
          <mxGeometry relative="1" as="geometry">
            <mxPoint x="249.99999999999977" y="350" as="targetPoint" />
            <Array as="points">
              <mxPoint x="250" y="80" />
              <mxPoint x="250" y="320" />
              <mxPoint x="500" y="320" />
            </Array>
          </mxGeometry>
        </mxCell>
        <mxCell id="bRGyaHFy2XWO1hQqYT5l-43" style="edgeStyle=orthogonalEdgeStyle;rounded=0;orthogonalLoop=1;jettySize=auto;html=1;exitX=0.5;exitY=1;exitDx=0;exitDy=0;entryX=0.5;entryY=0;entryDx=0;entryDy=0;" edge="1" parent="WIyWlLk6GJQsqaUBKTNV-1" source="bRGyaHFy2XWO1hQqYT5l-5" target="WIyWlLk6GJQsqaUBKTNV-3">
          <mxGeometry relative="1" as="geometry" />
        </mxCell>
        <mxCell id="bRGyaHFy2XWO1hQqYT5l-66" style="edgeStyle=orthogonalEdgeStyle;rounded=0;orthogonalLoop=1;jettySize=auto;html=1;exitX=1;exitY=0.75;exitDx=0;exitDy=0;entryX=0;entryY=0.25;entryDx=0;entryDy=0;" edge="1" parent="WIyWlLk6GJQsqaUBKTNV-1" source="bRGyaHFy2XWO1hQqYT5l-5" target="bRGyaHFy2XWO1hQqYT5l-0">
          <mxGeometry relative="1" as="geometry" />
        </mxCell>
        <mxCell id="bRGyaHFy2XWO1hQqYT5l-5" value="Обговорення 1" style="rounded=1;whiteSpace=wrap;html=1;fontSize=12;glass=0;strokeWidth=1;shadow=0;" vertex="1" parent="WIyWlLk6GJQsqaUBKTNV-1">
          <mxGeometry x="350" y="60" width="120" height="40" as="geometry" />
        </mxCell>
        <mxCell id="bRGyaHFy2XWO1hQqYT5l-57" style="edgeStyle=orthogonalEdgeStyle;rounded=0;orthogonalLoop=1;jettySize=auto;html=1;exitX=1;exitY=0.5;exitDx=0;exitDy=0;entryX=0;entryY=0.5;entryDx=0;entryDy=0;" edge="1" parent="WIyWlLk6GJQsqaUBKTNV-1" source="bRGyaHFy2XWO1hQqYT5l-6" target="bRGyaHFy2XWO1hQqYT5l-2">
          <mxGeometry relative="1" as="geometry" />
        </mxCell>
        <mxCell id="bRGyaHFy2XWO1hQqYT5l-6" value="Реєстрація" style="rounded=1;whiteSpace=wrap;html=1;fontSize=12;glass=0;strokeWidth=1;shadow=0;" vertex="1" parent="WIyWlLk6GJQsqaUBKTNV-1">
          <mxGeometry x="440" y="260" width="120" height="40" as="geometry" />
        </mxCell>
        <mxCell id="bRGyaHFy2XWO1hQqYT5l-38" value="" style="endArrow=classic;startArrow=classic;html=1;rounded=0;entryX=0.5;entryY=1;entryDx=0;entryDy=0;" edge="1" parent="WIyWlLk6GJQsqaUBKTNV-1" target="WIyWlLk6GJQsqaUBKTNV-3">
          <mxGeometry width="50" height="50" relative="1" as="geometry">
            <mxPoint x="330" y="260" as="sourcePoint" />
            <mxPoint x="490" y="270" as="targetPoint" />
            <Array as="points">
              <mxPoint x="330" y="230" />
              <mxPoint x="410" y="230" />
            </Array>
          </mxGeometry>
        </mxCell>
        <mxCell id="bRGyaHFy2XWO1hQqYT5l-39" value="" style="endArrow=classic;html=1;rounded=0;entryX=0.5;entryY=0;entryDx=0;entryDy=0;" edge="1" parent="WIyWlLk6GJQsqaUBKTNV-1" target="bRGyaHFy2XWO1hQqYT5l-6">
          <mxGeometry width="50" height="50" relative="1" as="geometry">
            <mxPoint x="410" y="230" as="sourcePoint" />
            <mxPoint x="470" y="200" as="targetPoint" />
            <Array as="points">
              <mxPoint x="500" y="230" />
            </Array>
          </mxGeometry>
        </mxCell>
        <mxCell id="bRGyaHFy2XWO1hQqYT5l-49" value="" style="endArrow=classic;startArrow=classic;html=1;rounded=0;entryX=0;entryY=0.5;entryDx=0;entryDy=0;exitX=1;exitY=0.5;exitDx=0;exitDy=0;" edge="1" parent="WIyWlLk6GJQsqaUBKTNV-1" source="WIyWlLk6GJQsqaUBKTNV-3" target="bRGyaHFy2XWO1hQqYT5l-0">
          <mxGeometry width="50" height="50" relative="1" as="geometry">
            <mxPoint x="420" y="250" as="sourcePoint" />
            <mxPoint x="470" y="200" as="targetPoint" />
          </mxGeometry>
        </mxCell>
        <mxCell id="bRGyaHFy2XWO1hQqYT5l-51" value="" style="endArrow=classic;startArrow=classic;html=1;rounded=0;entryX=0.5;entryY=0;entryDx=0;entryDy=0;exitX=0.825;exitY=1.041;exitDx=0;exitDy=0;exitPerimeter=0;" edge="1" parent="WIyWlLk6GJQsqaUBKTNV-1" source="WIyWlLk6GJQsqaUBKTNV-3" target="bRGyaHFy2XWO1hQqYT5l-2">
          <mxGeometry width="50" height="50" relative="1" as="geometry">
            <mxPoint x="420" y="250" as="sourcePoint" />
            <mxPoint x="470" y="200" as="targetPoint" />
            <Array as="points">
              <mxPoint x="449" y="220" />
              <mxPoint x="680" y="220" />
            </Array>
          </mxGeometry>
        </mxCell>
        <mxCell id="bRGyaHFy2XWO1hQqYT5l-54" value="" style="endArrow=classic;startArrow=classic;html=1;rounded=0;entryX=0.5;entryY=1;entryDx=0;entryDy=0;exitX=0.75;exitY=0;exitDx=0;exitDy=0;" edge="1" parent="WIyWlLk6GJQsqaUBKTNV-1" source="bRGyaHFy2XWO1hQqYT5l-6" target="bRGyaHFy2XWO1hQqYT5l-0">
          <mxGeometry width="50" height="50" relative="1" as="geometry">
            <mxPoint x="420" y="250" as="sourcePoint" />
            <mxPoint x="470" y="200" as="targetPoint" />
            <Array as="points">
              <mxPoint x="530" y="230" />
              <mxPoint x="570" y="230" />
            </Array>
          </mxGeometry>
        </mxCell>
        <mxCell id="bRGyaHFy2XWO1hQqYT5l-65" value="" style="endArrow=classic;html=1;rounded=0;" edge="1" parent="WIyWlLk6GJQsqaUBKTNV-1">
          <mxGeometry width="50" height="50" relative="1" as="geometry">
            <mxPoint x="500" y="320" as="sourcePoint" />
            <mxPoint x="680" y="300" as="targetPoint" />
            <Array as="points">
              <mxPoint x="680" y="320" />
            </Array>
          </mxGeometry>
        </mxCell>
      </root>
    </mxGraphModel>
  </diagram>
</mxfile>
